<?xml version="1.0" encoding="iso-8859-1"?>
<!-- Uploaded to: SVG Repo, www.svgrepo.com, Generator: SVG Repo Mixer Tools -->
<svg height="800px" width="800px" version="1.1" id="Layer_1" xmlns="http://www.w3.org/2000/svg" xmlns:xlink="http://www.w3.org/1999/xlink" 
	 viewBox="0 0 512 512" xml:space="preserve">
<g transform="translate(1 1)">
	<path style="fill:#54C9FD;" d="M405.857,501.857H104.143c-38.4,0-68.571-30.171-68.571-68.571V76.714
		c0-38.4,30.171-68.571,68.571-68.571h302.629c37.486,0,67.657,30.171,67.657,68.571V434.2
		C474.429,471.686,444.257,501.857,405.857,501.857"/>
	<path style="fill:#FFDD09;" d="M437.857,319l-64.914-93.257C369.286,242.2,354.657,255,337.286,255
		c-13.714,0-26.514-8.229-32-20.114l-68.571,102.4L159,272.371c-6.4,10.971-18.286,19.2-32,19.2c-12.8,0-23.771-6.4-30.171-15.543
		L8.143,364.714V447c0,30.171,24.686,54.857,54.857,54.857h384c30.171,0,54.857-24.686,54.857-54.857V145.286L437.857,319z"/>
	<path style="fill:#FFFFFF;" d="M35.571,433.286V76.714c0-38.4,30.171-68.571,68.571-68.571H76.714
		c-38.4,0-68.571,30.171-68.571,68.571V434.2c0,37.486,30.171,67.657,68.571,67.657h27.429
		C65.743,501.857,35.571,471.686,35.571,433.286"/>
	<path style="fill:#33A9F8;" d="M474.429,433.286V76.714c0-38.4-30.171-68.571-68.571-68.571h27.429
		c38.4,0,68.571,30.171,68.571,68.571V434.2L474.429,433.286L474.429,433.286z"/>
	<g>
		<path style="fill:#1CD759;" d="M163.571,255c0,20.114-16.457,36.571-36.571,36.571S90.429,275.114,90.429,255
			s16.457-36.571,36.571-36.571S163.571,234.886,163.571,255"/>
		<path style="fill:#1CD759;" d="M364.714,218.429c0,20.114-16.457,36.571-36.571,36.571c-20.114,0-36.571-16.457-36.571-36.571
			s16.457-36.571,36.571-36.571C348.257,181.857,364.714,198.314,364.714,218.429"/>
	</g>
	<path style="fill:#FD9808;" d="M501.857,456.143l-27.429,27.429V202.886l27.429-57.6V456.143z"/>
	<path d="M127,300.714c-25.6,0-45.714-20.114-45.714-45.714S101.4,209.286,127,209.286S172.714,229.4,172.714,255
		S152.6,300.714,127,300.714z M127,227.571c-15.543,0-27.429,11.886-27.429,27.429s11.886,27.429,27.429,27.429
		s27.429-11.886,27.429-27.429S142.543,227.571,127,227.571z"/>
	<path d="M328.143,264.143c-25.6,0-45.714-20.114-45.714-45.714s20.114-45.714,45.714-45.714c25.6,0,45.714,20.114,45.714,45.714
		S353.743,264.143,328.143,264.143z M328.143,191c-15.543,0-27.429,11.886-27.429,27.429s11.886,27.429,27.429,27.429
		c15.543,0,27.429-11.886,27.429-27.429S343.686,191,328.143,191z"/>
	<path d="M430.543,511H79.457C34.657,511-1,475.343-1,430.543v-65.829c0-2.743,0.914-4.571,2.743-6.4l89.6-88.686
		c1.829-1.829,4.571-2.743,7.314-2.743s5.486,1.829,6.4,3.657c5.486,7.314,13.714,11.886,22.857,11.886
		c10.057,0,19.2-5.486,23.771-14.629c0.914-2.743,3.657-3.657,6.4-4.571c2.743-0.914,5.486,0,7.314,1.829l69.486,57.6l53.943-92.343
		c1.829-2.743,4.571-4.571,8.229-4.571s6.4,1.829,8.229,4.571c4.571,9.143,13.714,14.629,24.686,14.629
		c12.8,0,24.686-9.143,26.514-21.943c0.914-3.657,3.657-6.4,6.4-7.314c3.657-0.914,7.314,0,9.143,3.657l63.086,80.457
		l58.514-158.171c1.829-4.571,5.486-6.4,10.057-5.486c4.571,0.914,7.314,4.571,7.314,9.143v285.257
		C511,475.343,475.343,511,430.543,511z M17.286,368.371v62.171c0,34.743,27.429,62.171,62.171,62.171h352
		c33.829,0,62.171-27.429,62.171-62.171V196.486L447,321.743c-0.914,2.743-3.657,5.486-7.314,5.486
		c-3.657,0.914-6.4-0.914-8.229-3.657L368.371,242.2c-8.229,12.8-22.857,21.029-38.4,21.029c-11.886,0-22.857-4.571-31.086-12.8
		l-52.114,90.514c-0.914,2.743-3.657,3.657-6.4,4.571c-2.743,0.914-5.486,0-7.314-1.829l-70.4-58.514
		c-8.229,9.143-21.029,14.629-33.829,14.629c-10.971,0-21.943-4.571-30.171-11.886L17.286,368.371z"/>
	<path d="M433.286,511H76.714C33.743,511-1,476.257-1,433.286V76.714C-1,33.743,33.743-1,76.714-1H434.2
		C476.257-1,511,33.743,511,76.714V434.2C511,476.257,476.257,511,433.286,511z M76.714,17.286
		c-32.914,0-59.429,26.514-59.429,59.429V434.2c0,32,26.514,58.514,59.429,58.514H434.2c32.914,0,59.429-26.514,59.429-59.429
		V76.714C492.714,43.8,466.2,17.286,433.286,17.286H76.714z"/>
</g>
</svg>